<svg xmlns="http://www.w3.org/2000/svg" xmlns:xlink="http://www.w3.org/1999/xlink" width="6912" zoomAndPan="magnify" viewBox="0 0 5184 2592.000001" height="3456" preserveAspectRatio="xMidYMid meet" version="1.0"><defs><g/><clipPath id="id1"><path d="M 2904 776 L 2930.238281 776 L 2930.238281 1488 L 2904 1488 Z M 2904 776 " clip-rule="nonzero"/></clipPath><clipPath id="id2"><path d="M 2059.074219 776 L 2086 776 L 2086 1488 L 2059.074219 1488 Z M 2059.074219 776 " clip-rule="nonzero"/></clipPath><clipPath id="id3"><path d="M 2138 696.335938 L 2851 696.335938 L 2851 723 L 2138 723 Z M 2138 696.335938 " clip-rule="nonzero"/></clipPath><clipPath id="id4"><path d="M 2138 1541 L 2851 1541 L 2851 1567.5 L 2138 1567.5 Z M 2138 1541 " clip-rule="nonzero"/></clipPath><clipPath id="id5"><path d="M 2850 696.335938 L 2930.238281 696.335938 L 2930.238281 777 L 2850 777 Z M 2850 696.335938 " clip-rule="nonzero"/></clipPath><clipPath id="id6"><path d="M 2059.074219 696.335938 L 2139 696.335938 L 2139 777 L 2059.074219 777 Z M 2059.074219 696.335938 " clip-rule="nonzero"/></clipPath><clipPath id="id7"><path d="M 2850 1487 L 2930.238281 1487 L 2930.238281 1567.5 L 2850 1567.5 Z M 2850 1487 " clip-rule="nonzero"/></clipPath><clipPath id="id8"><path d="M 2059.074219 1487 L 2139 1487 L 2139 1567.5 L 2059.074219 1567.5 Z M 2059.074219 1487 " clip-rule="nonzero"/></clipPath></defs><path fill="rgb(100%, 47.44873%, 77.648926%)" d="M 2156.476562 603.070312 L 3027.640625 603.070312 L 3027.640625 1474.234375 L 2156.476562 1474.234375 L 2156.476562 603.070312 " fill-opacity="1" fill-rule="nonzero"/><g clip-path="url(#id1)"><path fill="rgb(97.24884%, 97.24884%, 94.898987%)" d="M 2904.207031 776.164062 L 2930.238281 776.164062 L 2930.238281 1487.671875 L 2904.207031 1487.671875 Z M 2904.207031 776.164062 " fill-opacity="1" fill-rule="nonzero"/></g><g clip-path="url(#id2)"><path fill="rgb(97.24884%, 97.24884%, 94.898987%)" d="M 2059.074219 776.164062 L 2085.105469 776.164062 L 2085.105469 1487.671875 L 2059.074219 1487.671875 Z M 2059.074219 776.164062 " fill-opacity="1" fill-rule="nonzero"/></g><g clip-path="url(#id3)"><path fill="rgb(97.24884%, 97.24884%, 94.898987%)" d="M 2138.902344 696.335938 L 2850.410156 696.335938 L 2850.410156 722.367188 L 2138.902344 722.367188 Z M 2138.902344 696.335938 " fill-opacity="1" fill-rule="nonzero"/></g><g clip-path="url(#id4)"><path fill="rgb(97.24884%, 97.24884%, 94.898987%)" d="M 2138.902344 1541.46875 L 2850.410156 1541.46875 L 2850.410156 1567.5 L 2138.902344 1567.5 Z M 2138.902344 1541.46875 " fill-opacity="1" fill-rule="nonzero"/></g><g clip-path="url(#id5)"><path fill="rgb(97.24884%, 97.24884%, 94.898987%)" d="M 2904.207031 722.367188 L 2904.207031 776.164062 L 2930.238281 776.164062 L 2930.238281 696.335938 L 2850.410156 696.335938 L 2850.410156 722.367188 Z M 2904.207031 722.367188 " fill-opacity="1" fill-rule="nonzero"/></g><g clip-path="url(#id6)"><path fill="rgb(97.24884%, 97.24884%, 94.898987%)" d="M 2085.105469 722.367188 L 2138.902344 722.367188 L 2138.902344 696.335938 L 2059.074219 696.335938 L 2059.074219 776.164062 L 2085.105469 776.164062 Z M 2085.105469 722.367188 " fill-opacity="1" fill-rule="nonzero"/></g><g clip-path="url(#id7)"><path fill="rgb(97.24884%, 97.24884%, 94.898987%)" d="M 2904.207031 1541.46875 L 2850.410156 1541.46875 L 2850.410156 1567.5 L 2930.238281 1567.5 L 2930.238281 1487.671875 L 2904.207031 1487.671875 Z M 2904.207031 1541.46875 " fill-opacity="1" fill-rule="nonzero"/></g><g clip-path="url(#id8)"><path fill="rgb(97.24884%, 97.24884%, 94.898987%)" d="M 2085.105469 1541.46875 L 2085.105469 1487.671875 L 2059.074219 1487.671875 L 2059.074219 1567.5 L 2138.902344 1567.5 L 2138.902344 1541.46875 Z M 2085.105469 1541.46875 " fill-opacity="1" fill-rule="nonzero"/></g><g fill="rgb(74.119568%, 57.649231%, 97.648621%)" fill-opacity="1"><g transform="translate(1920.063534, 1907.482414)"><g><path d="M 62.921875 0 L 21.25 0 L 21.25 -158.109375 L 47.859375 -158.109375 L 52.703125 -142.25 L 54.3125 -142.25 C 60.945312 -146.1875 66.144531 -149.1875 69.90625 -151.25 C 73.675781 -153.3125 79.414062 -155.640625 87.125 -158.234375 C 94.832031 -160.835938 102.09375 -162.140625 108.90625 -162.140625 C 125.21875 -162.140625 136.78125 -155.328125 143.59375 -141.703125 C 150.039062 -145.828125 155.328125 -149.050781 159.453125 -151.375 C 163.578125 -153.707031 169.222656 -156.082031 176.390625 -158.5 C 183.554688 -160.925781 190.457031 -162.140625 197.09375 -162.140625 C 212.507812 -162.140625 223.398438 -156.984375 229.765625 -146.671875 C 236.128906 -136.367188 239.3125 -121.984375 239.3125 -103.515625 L 239.3125 0 L 197.09375 0 L 197.09375 -96.265625 C 197.09375 -110.066406 195.882812 -118.445312 193.46875 -121.40625 C 191.050781 -124.363281 187.238281 -125.84375 182.03125 -125.84375 C 172.175781 -125.84375 161.601562 -121.988281 150.3125 -114.28125 C 150.664062 -108.539062 150.84375 -104.054688 150.84375 -100.828125 L 150.84375 0 L 109.171875 0 L 109.171875 -96.265625 C 109.171875 -110.242188 108.003906 -118.664062 105.671875 -121.53125 C 103.335938 -124.40625 99.75 -125.84375 94.90625 -125.84375 C 90.070312 -125.84375 84.609375 -124.722656 78.515625 -122.484375 C 72.421875 -120.242188 67.222656 -117.597656 62.921875 -114.546875 Z M 62.921875 0 "/></g></g></g><g fill="rgb(74.119568%, 57.649231%, 97.648621%)" fill-opacity="1"><g transform="translate(2177.006567, 1907.482414)"><g><path d="M 28.90625 -140.5 C 39.570312 -154.570312 57.453125 -161.609375 82.546875 -161.609375 C 107.640625 -161.609375 125.429688 -154.613281 135.921875 -140.625 C 146.410156 -126.644531 151.65625 -106.117188 151.65625 -79.046875 C 151.65625 -51.984375 146.410156 -31.457031 135.921875 -17.46875 C 125.429688 -3.488281 107.640625 3.5 82.546875 3.5 C 57.453125 3.5 39.570312 -3.535156 28.90625 -17.609375 C 18.238281 -31.679688 12.90625 -52.160156 12.90625 -79.046875 C 12.90625 -105.941406 18.238281 -126.425781 28.90625 -140.5 Z M 109.171875 -79.046875 C 109.171875 -99.484375 107.332031 -113.0625 103.65625 -119.78125 C 99.976562 -126.507812 92.894531 -129.875 82.40625 -129.875 C 71.925781 -129.875 64.800781 -126.46875 61.03125 -119.65625 C 57.269531 -112.84375 55.390625 -99.304688 55.390625 -79.046875 C 55.390625 -58.796875 57.269531 -45.265625 61.03125 -38.453125 C 64.800781 -31.640625 71.925781 -28.234375 82.40625 -28.234375 C 92.894531 -28.234375 99.976562 -31.59375 103.65625 -38.3125 C 107.332031 -45.039062 109.171875 -58.617188 109.171875 -79.046875 Z M 109.171875 -79.046875 "/></g></g></g><g fill="rgb(74.119568%, 57.649231%, 97.648621%)" fill-opacity="1"><g transform="translate(2341.493195, 1907.482414)"><g><path d="M 86.046875 3.5 C 37.285156 3.5 12.90625 -24.015625 12.90625 -79.046875 C 12.90625 -134.085938 37.101562 -161.609375 85.5 -161.609375 C 107.195312 -161.609375 123.507812 -155.828125 134.4375 -144.265625 C 145.375 -132.703125 150.84375 -113.566406 150.84375 -86.859375 L 150.84375 -64.53125 L 56.203125 -64.53125 C 56.203125 -49.476562 58.976562 -39.53125 64.53125 -34.6875 C 68.300781 -31.28125 73.585938 -29.578125 80.390625 -29.578125 C 92.941406 -29.578125 108.898438 -32.445312 128.265625 -38.1875 L 137.671875 -41.140625 L 147.890625 -11.03125 C 139.828125 -7.257812 129.789062 -3.894531 117.78125 -0.9375 C 105.769531 2.019531 95.191406 3.5 86.046875 3.5 Z M 103.515625 -122.890625 C 100.296875 -126.828125 93.84375 -128.796875 84.15625 -128.796875 C 74.476562 -128.796875 67.578125 -126.460938 63.453125 -121.796875 C 59.335938 -117.140625 57.007812 -108.09375 56.46875 -94.65625 L 108.359375 -95.71875 C 108.003906 -109.882812 106.390625 -118.941406 103.515625 -122.890625 Z M 103.515625 -122.890625 "/></g></g></g><g fill="rgb(74.119568%, 57.649231%, 97.648621%)" fill-opacity="1"><g transform="translate(2503.829492, 1907.482414)"><g><path d="M 6.453125 0 L 6.453125 -33.34375 L 97.34375 -153.53125 L 97.34375 -155.421875 L 12.09375 -153 L 12.09375 -189.03125 L 147.359375 -189.03125 L 147.359375 -156.5 L 58.34375 -35.5 L 58.34375 -33.875 L 148.703125 -35.765625 L 148.703125 0 Z M 6.453125 0 "/></g></g></g><g fill="rgb(74.119568%, 57.649231%, 97.648621%)" fill-opacity="1"><g transform="translate(2659.446597, 1907.482414)"><g><path d="M 86.046875 3.5 C 37.285156 3.5 12.90625 -24.015625 12.90625 -79.046875 C 12.90625 -134.085938 37.101562 -161.609375 85.5 -161.609375 C 107.195312 -161.609375 123.507812 -155.828125 134.4375 -144.265625 C 145.375 -132.703125 150.84375 -113.566406 150.84375 -86.859375 L 150.84375 -64.53125 L 56.203125 -64.53125 C 56.203125 -49.476562 58.976562 -39.53125 64.53125 -34.6875 C 68.300781 -31.28125 73.585938 -29.578125 80.390625 -29.578125 C 92.941406 -29.578125 108.898438 -32.445312 128.265625 -38.1875 L 137.671875 -41.140625 L 147.890625 -11.03125 C 139.828125 -7.257812 129.789062 -3.894531 117.78125 -0.9375 C 105.769531 2.019531 95.191406 3.5 86.046875 3.5 Z M 103.515625 -122.890625 C 100.296875 -126.828125 93.84375 -128.796875 84.15625 -128.796875 C 74.476562 -128.796875 67.578125 -126.460938 63.453125 -121.796875 C 59.335938 -117.140625 57.007812 -108.09375 56.46875 -94.65625 L 108.359375 -95.71875 C 108.003906 -109.882812 106.390625 -118.941406 103.515625 -122.890625 Z M 103.515625 -122.890625 "/></g></g></g><g fill="rgb(74.119568%, 57.649231%, 97.648621%)" fill-opacity="1"><g transform="translate(2821.782895, 1907.482414)"><g><path d="M 86.046875 3.5 C 37.285156 3.5 12.90625 -24.015625 12.90625 -79.046875 C 12.90625 -134.085938 37.101562 -161.609375 85.5 -161.609375 C 107.195312 -161.609375 123.507812 -155.828125 134.4375 -144.265625 C 145.375 -132.703125 150.84375 -113.566406 150.84375 -86.859375 L 150.84375 -64.53125 L 56.203125 -64.53125 C 56.203125 -49.476562 58.976562 -39.53125 64.53125 -34.6875 C 68.300781 -31.28125 73.585938 -29.578125 80.390625 -29.578125 C 92.941406 -29.578125 108.898438 -32.445312 128.265625 -38.1875 L 137.671875 -41.140625 L 147.890625 -11.03125 C 139.828125 -7.257812 129.789062 -3.894531 117.78125 -0.9375 C 105.769531 2.019531 95.191406 3.5 86.046875 3.5 Z M 103.515625 -122.890625 C 100.296875 -126.828125 93.84375 -128.796875 84.15625 -128.796875 C 74.476562 -128.796875 67.578125 -126.460938 63.453125 -121.796875 C 59.335938 -117.140625 57.007812 -108.09375 56.46875 -94.65625 L 108.359375 -95.71875 C 108.003906 -109.882812 106.390625 -118.941406 103.515625 -122.890625 Z M 103.515625 -122.890625 "/></g></g></g><g fill="rgb(74.119568%, 57.649231%, 97.648621%)" fill-opacity="1"><g transform="translate(2984.119192, 1907.482414)"><g><path d="M 91.421875 -194.953125 C 79.585938 -186.878906 70.578125 -173.96875 64.390625 -156.21875 C 58.210938 -138.476562 55.125 -117.28125 55.125 -92.625 C 55.125 -67.976562 58.171875 -46.867188 64.265625 -29.296875 C 70.359375 -11.734375 79.410156 1.257812 91.421875 9.6875 L 73.671875 33.34375 C 55.929688 23.664062 41.320312 8.566406 29.84375 -11.953125 C 18.375 -32.484375 12.640625 -59.332031 12.640625 -92.5 C 12.640625 -154.164062 32.984375 -196.203125 73.671875 -218.609375 Z M 91.421875 -194.953125 "/></g></g></g><g fill="rgb(74.119568%, 57.649231%, 97.648621%)" fill-opacity="1"><g transform="translate(3077.91948, 1907.482414)"><g><path d="M 81.203125 -92.5 C 81.203125 -59.332031 75.460938 -32.484375 63.984375 -11.953125 C 52.515625 8.566406 37.910156 23.664062 20.171875 33.34375 L 2.421875 9.6875 C 14.429688 1.257812 23.484375 -11.734375 29.578125 -29.296875 C 35.671875 -46.867188 38.71875 -67.976562 38.71875 -92.625 C 38.71875 -117.28125 35.625 -138.476562 29.4375 -156.21875 C 23.257812 -173.96875 14.253906 -186.878906 2.421875 -194.953125 L 20.171875 -218.609375 C 60.859375 -196.203125 81.203125 -154.164062 81.203125 -92.5 Z M 81.203125 -92.5 "/></g></g></g><g fill="rgb(74.119568%, 57.649231%, 97.648621%)" fill-opacity="1"><g transform="translate(3171.719769, 1907.482414)"><g><path d="M 28.234375 0.265625 L 28.234375 -35.5 L 68.5625 -35.5 L 68.5625 -11.03125 C 68.5625 15.6875 60.316406 35.050781 43.828125 47.0625 L 19.625 35.21875 C 25.363281 26.800781 28.234375 15.148438 28.234375 0.265625 Z M 25.28125 -114.28125 L 25.28125 -151.109375 L 72.328125 -151.109375 L 72.328125 -114.28125 Z M 25.28125 -114.28125 "/></g></g></g><g fill="rgb(100%, 100%, 100%)" fill-opacity="1"><g transform="translate(2152.393433, 961.708292)"><g><path d="M 14.921875 -117.234375 L 58.78125 0 L 45.46875 0 L 1.84375 -117.234375 Z M 14.921875 -117.234375 "/></g></g></g><g fill="rgb(100%, 100%, 100%)" fill-opacity="1"><g transform="translate(2212.669007, 961.708292)"><g><path d="M 35.28125 -44.984375 L 4.734375 -87.890625 L 19.890625 -87.890625 L 43.0625 -54.203125 L 66.15625 -87.890625 L 81.15625 -87.890625 L 50.59375 -44.984375 L 82.765625 0 L 67.6875 0 L 43.0625 -35.609375 L 18.203125 0 L 3.125 0 Z M 35.28125 -44.984375 "/></g></g></g><g fill="rgb(100%, 100%, 100%)" fill-opacity="1"><g transform="translate(2298.674016, 961.708292)"><g><path d="M 90.625 -26.9375 L 73.21875 -26.9375 L 73.21875 0 L 60.46875 0 L 60.46875 -26.9375 L 3.453125 -26.9375 L 3.453125 -38.578125 L 59.109375 -117.890625 L 73.21875 -117.890625 L 73.21875 -39.046875 L 90.625 -39.046875 Z M 60.46875 -39.046875 L 60.46875 -78.03125 C 60.46875 -85.675781 60.734375 -94.304688 61.265625 -103.921875 L 60.625 -103.921875 C 58.0625 -98.796875 55.65625 -94.546875 53.40625 -91.171875 L 16.765625 -39.046875 Z M 60.46875 -39.046875 "/></g></g></g><g fill="rgb(100%, 100%, 100%)" fill-opacity="1"><g transform="translate(2392.534088, 961.708292)"><g><path d="M 109.703125 -59.75 C 109.703125 -40.394531 104.445312 -25.597656 93.9375 -15.359375 C 83.4375 -5.117188 68.320312 0 48.59375 0 L 16.125 0 L 16.125 -117.234375 L 52.046875 -117.234375 C 70.273438 -117.234375 84.441406 -112.179688 94.546875 -102.078125 C 104.648438 -91.972656 109.703125 -77.863281 109.703125 -59.75 Z M 95.265625 -59.265625 C 95.265625 -74.554688 91.425781 -86.078125 83.75 -93.828125 C 76.082031 -101.578125 64.6875 -105.453125 49.5625 -105.453125 L 29.75 -105.453125 L 29.75 -11.78125 L 46.34375 -11.78125 C 62.601562 -11.78125 74.820312 -15.773438 83 -23.765625 C 91.175781 -31.765625 95.265625 -43.597656 95.265625 -59.265625 Z M 95.265625 -59.265625 "/></g></g></g><g fill="rgb(100%, 100%, 100%)" fill-opacity="1"><g transform="translate(2512.203646, 961.708292)"><g><path d="M 14.921875 -117.234375 L 58.78125 0 L 45.46875 0 L 1.84375 -117.234375 Z M 14.921875 -117.234375 "/></g></g></g><g fill="rgb(100%, 100%, 100%)" fill-opacity="1"><g transform="translate(2572.47922, 961.708292)"><g><path d="M 35.28125 -44.984375 L 4.734375 -87.890625 L 19.890625 -87.890625 L 43.0625 -54.203125 L 66.15625 -87.890625 L 81.15625 -87.890625 L 50.59375 -44.984375 L 82.765625 0 L 67.6875 0 L 43.0625 -35.609375 L 18.203125 0 L 3.125 0 Z M 35.28125 -44.984375 "/></g></g></g><g fill="rgb(100%, 100%, 100%)" fill-opacity="1"><g transform="translate(2658.484229, 961.708292)"><g><path d="M 9.375 -50.125 C 9.375 -73.164062 13.851562 -90.390625 22.8125 -101.796875 C 31.769531 -113.210938 45.015625 -118.921875 62.546875 -118.921875 C 68.585938 -118.921875 73.347656 -118.414062 76.828125 -117.40625 L 76.828125 -105.9375 C 72.710938 -107.269531 68.003906 -107.9375 62.703125 -107.9375 C 50.140625 -107.9375 40.546875 -104.019531 33.921875 -96.1875 C 27.296875 -88.351562 23.660156 -76.046875 23.015625 -59.265625 L 23.984375 -59.265625 C 29.859375 -68.460938 39.160156 -73.0625 51.890625 -73.0625 C 62.421875 -73.0625 70.71875 -69.878906 76.78125 -63.515625 C 82.851562 -57.148438 85.890625 -48.515625 85.890625 -37.609375 C 85.890625 -25.421875 82.5625 -15.835938 75.90625 -8.859375 C 69.25 -1.878906 60.253906 1.609375 48.921875 1.609375 C 36.785156 1.609375 27.160156 -2.945312 20.046875 -12.0625 C 12.929688 -21.175781 9.375 -33.863281 9.375 -50.125 Z M 48.75 -9.703125 C 56.34375 -9.703125 62.238281 -12.09375 66.4375 -16.875 C 70.632812 -21.664062 72.734375 -28.578125 72.734375 -37.609375 C 72.734375 -45.359375 70.78125 -51.453125 66.875 -55.890625 C 62.976562 -60.328125 57.15625 -62.546875 49.40625 -62.546875 C 44.59375 -62.546875 40.179688 -61.554688 36.171875 -59.578125 C 32.160156 -57.597656 28.960938 -54.867188 26.578125 -51.390625 C 24.203125 -47.921875 23.015625 -44.316406 23.015625 -40.578125 C 23.015625 -35.066406 24.082031 -29.929688 26.21875 -25.171875 C 28.363281 -20.421875 31.398438 -16.65625 35.328125 -13.875 C 39.253906 -11.09375 43.726562 -9.703125 48.75 -9.703125 Z M 48.75 -9.703125 "/></g></g></g><g fill="rgb(100%, 100%, 100%)" fill-opacity="1"><g transform="translate(2752.3443, 961.708292)"><g><path d="M 29.75 0 L 16.125 0 L 16.125 -117.234375 L 81.46875 -117.234375 L 81.46875 -105.125 L 29.75 -105.125 L 29.75 -62.234375 L 78.34375 -62.234375 L 78.34375 -50.125 L 29.75 -50.125 Z M 29.75 0 "/></g></g></g><g fill="rgb(100%, 100%, 100%)" fill-opacity="1"><g transform="translate(2152.393433, 1189.805829)"><g><path d="M 14.921875 -117.234375 L 58.78125 0 L 45.46875 0 L 1.84375 -117.234375 Z M 14.921875 -117.234375 "/></g></g></g><g fill="rgb(100%, 100%, 100%)" fill-opacity="1"><g transform="translate(2212.669007, 1189.805829)"><g><path d="M 35.28125 -44.984375 L 4.734375 -87.890625 L 19.890625 -87.890625 L 43.0625 -54.203125 L 66.15625 -87.890625 L 81.15625 -87.890625 L 50.59375 -44.984375 L 82.765625 0 L 67.6875 0 L 43.0625 -35.609375 L 18.203125 0 L 3.125 0 Z M 35.28125 -44.984375 "/></g></g></g><g fill="rgb(100%, 100%, 100%)" fill-opacity="1"><g transform="translate(2298.674016, 1189.805829)"><g><path d="M 9.375 -50.125 C 9.375 -73.164062 13.851562 -90.390625 22.8125 -101.796875 C 31.769531 -113.210938 45.015625 -118.921875 62.546875 -118.921875 C 68.585938 -118.921875 73.347656 -118.414062 76.828125 -117.40625 L 76.828125 -105.9375 C 72.710938 -107.269531 68.003906 -107.9375 62.703125 -107.9375 C 50.140625 -107.9375 40.546875 -104.019531 33.921875 -96.1875 C 27.296875 -88.351562 23.660156 -76.046875 23.015625 -59.265625 L 23.984375 -59.265625 C 29.859375 -68.460938 39.160156 -73.0625 51.890625 -73.0625 C 62.421875 -73.0625 70.71875 -69.878906 76.78125 -63.515625 C 82.851562 -57.148438 85.890625 -48.515625 85.890625 -37.609375 C 85.890625 -25.421875 82.5625 -15.835938 75.90625 -8.859375 C 69.25 -1.878906 60.253906 1.609375 48.921875 1.609375 C 36.785156 1.609375 27.160156 -2.945312 20.046875 -12.0625 C 12.929688 -21.175781 9.375 -33.863281 9.375 -50.125 Z M 48.75 -9.703125 C 56.34375 -9.703125 62.238281 -12.09375 66.4375 -16.875 C 70.632812 -21.664062 72.734375 -28.578125 72.734375 -37.609375 C 72.734375 -45.359375 70.78125 -51.453125 66.875 -55.890625 C 62.976562 -60.328125 57.15625 -62.546875 49.40625 -62.546875 C 44.59375 -62.546875 40.179688 -61.554688 36.171875 -59.578125 C 32.160156 -57.597656 28.960938 -54.867188 26.578125 -51.390625 C 24.203125 -47.921875 23.015625 -44.316406 23.015625 -40.578125 C 23.015625 -35.066406 24.082031 -29.929688 26.21875 -25.171875 C 28.363281 -20.421875 31.398438 -16.65625 35.328125 -13.875 C 39.253906 -11.09375 43.726562 -9.703125 48.75 -9.703125 Z M 48.75 -9.703125 "/></g></g></g><g fill="rgb(100%, 100%, 100%)" fill-opacity="1"><g transform="translate(2392.534088, 1189.805829)"><g><path d="M 44.671875 -71.609375 C 57.015625 -71.609375 66.726562 -68.546875 73.8125 -62.421875 C 80.894531 -56.304688 84.4375 -47.929688 84.4375 -37.296875 C 84.4375 -25.148438 80.570312 -15.628906 72.84375 -8.734375 C 65.125 -1.835938 54.472656 1.609375 40.890625 1.609375 C 27.691406 1.609375 17.617188 -0.503906 10.671875 -4.734375 L 10.671875 -17.5625 C 14.410156 -15.15625 19.054688 -13.269531 24.609375 -11.90625 C 30.171875 -10.539062 35.65625 -9.859375 41.0625 -9.859375 C 50.46875 -9.859375 57.773438 -12.078125 62.984375 -16.515625 C 68.203125 -20.953125 70.8125 -27.367188 70.8125 -35.765625 C 70.8125 -52.128906 60.785156 -60.3125 40.734375 -60.3125 C 35.660156 -60.3125 28.875 -59.535156 20.375 -57.984375 L 13.46875 -62.390625 L 17.890625 -117.234375 L 76.1875 -117.234375 L 76.1875 -104.96875 L 29.265625 -104.96875 L 26.296875 -69.765625 C 32.453125 -70.992188 38.578125 -71.609375 44.671875 -71.609375 Z M 44.671875 -71.609375 "/></g></g></g><g fill="rgb(100%, 100%, 100%)" fill-opacity="1"><g transform="translate(2486.394159, 1189.805829)"><g><path d="M 14.921875 -117.234375 L 58.78125 0 L 45.46875 0 L 1.84375 -117.234375 Z M 14.921875 -117.234375 "/></g></g></g><g fill="rgb(100%, 100%, 100%)" fill-opacity="1"><g transform="translate(2546.669733, 1189.805829)"><g><path d="M 35.28125 -44.984375 L 4.734375 -87.890625 L 19.890625 -87.890625 L 43.0625 -54.203125 L 66.15625 -87.890625 L 81.15625 -87.890625 L 50.59375 -44.984375 L 82.765625 0 L 67.6875 0 L 43.0625 -35.609375 L 18.203125 0 L 3.125 0 Z M 35.28125 -44.984375 "/></g></g></g><g fill="rgb(100%, 100%, 100%)" fill-opacity="1"><g transform="translate(2632.674742, 1189.805829)"><g><path d="M 44.671875 -71.609375 C 57.015625 -71.609375 66.726562 -68.546875 73.8125 -62.421875 C 80.894531 -56.304688 84.4375 -47.929688 84.4375 -37.296875 C 84.4375 -25.148438 80.570312 -15.628906 72.84375 -8.734375 C 65.125 -1.835938 54.472656 1.609375 40.890625 1.609375 C 27.691406 1.609375 17.617188 -0.503906 10.671875 -4.734375 L 10.671875 -17.5625 C 14.410156 -15.15625 19.054688 -13.269531 24.609375 -11.90625 C 30.171875 -10.539062 35.65625 -9.859375 41.0625 -9.859375 C 50.46875 -9.859375 57.773438 -12.078125 62.984375 -16.515625 C 68.203125 -20.953125 70.8125 -27.367188 70.8125 -35.765625 C 70.8125 -52.128906 60.785156 -60.3125 40.734375 -60.3125 C 35.660156 -60.3125 28.875 -59.535156 20.375 -57.984375 L 13.46875 -62.390625 L 17.890625 -117.234375 L 76.1875 -117.234375 L 76.1875 -104.96875 L 29.265625 -104.96875 L 26.296875 -69.765625 C 32.453125 -70.992188 38.578125 -71.609375 44.671875 -71.609375 Z M 44.671875 -71.609375 "/></g></g></g><g fill="rgb(100%, 100%, 100%)" fill-opacity="1"><g transform="translate(2726.534813, 1189.805829)"><g><path d="M 89.8125 0 L 75.21875 -37.296875 L 28.234375 -37.296875 L 13.796875 0 L 0 0 L 46.34375 -117.71875 L 57.8125 -117.71875 L 103.921875 0 Z M 70.96875 -49.5625 L 57.34375 -85.890625 C 55.570312 -90.484375 53.753906 -96.125 51.890625 -102.8125 C 50.710938 -97.675781 49.023438 -92.035156 46.828125 -85.890625 L 33.046875 -49.5625 Z M 70.96875 -49.5625 "/></g></g></g><g fill="rgb(100%, 100%, 100%)" fill-opacity="1"><g transform="translate(2160.569724, 1417.903365)"><g><path d="M 14.921875 -117.234375 L 58.78125 0 L 45.46875 0 L 1.84375 -117.234375 Z M 14.921875 -117.234375 "/></g></g></g><g fill="rgb(100%, 100%, 100%)" fill-opacity="1"><g transform="translate(2220.845297, 1417.903365)"><g><path d="M 35.28125 -44.984375 L 4.734375 -87.890625 L 19.890625 -87.890625 L 43.0625 -54.203125 L 66.15625 -87.890625 L 81.15625 -87.890625 L 50.59375 -44.984375 L 82.765625 0 L 67.6875 0 L 43.0625 -35.609375 L 18.203125 0 L 3.125 0 Z M 35.28125 -44.984375 "/></g></g></g><g fill="rgb(100%, 100%, 100%)" fill-opacity="1"><g transform="translate(2306.850307, 1417.903365)"><g><path d="M 9.375 -50.125 C 9.375 -73.164062 13.851562 -90.390625 22.8125 -101.796875 C 31.769531 -113.210938 45.015625 -118.921875 62.546875 -118.921875 C 68.585938 -118.921875 73.347656 -118.414062 76.828125 -117.40625 L 76.828125 -105.9375 C 72.710938 -107.269531 68.003906 -107.9375 62.703125 -107.9375 C 50.140625 -107.9375 40.546875 -104.019531 33.921875 -96.1875 C 27.296875 -88.351562 23.660156 -76.046875 23.015625 -59.265625 L 23.984375 -59.265625 C 29.859375 -68.460938 39.160156 -73.0625 51.890625 -73.0625 C 62.421875 -73.0625 70.71875 -69.878906 76.78125 -63.515625 C 82.851562 -57.148438 85.890625 -48.515625 85.890625 -37.609375 C 85.890625 -25.421875 82.5625 -15.835938 75.90625 -8.859375 C 69.25 -1.878906 60.253906 1.609375 48.921875 1.609375 C 36.785156 1.609375 27.160156 -2.945312 20.046875 -12.0625 C 12.929688 -21.175781 9.375 -33.863281 9.375 -50.125 Z M 48.75 -9.703125 C 56.34375 -9.703125 62.238281 -12.09375 66.4375 -16.875 C 70.632812 -21.664062 72.734375 -28.578125 72.734375 -37.609375 C 72.734375 -45.359375 70.78125 -51.453125 66.875 -55.890625 C 62.976562 -60.328125 57.15625 -62.546875 49.40625 -62.546875 C 44.59375 -62.546875 40.179688 -61.554688 36.171875 -59.578125 C 32.160156 -57.597656 28.960938 -54.867188 26.578125 -51.390625 C 24.203125 -47.921875 23.015625 -44.316406 23.015625 -40.578125 C 23.015625 -35.066406 24.082031 -29.929688 26.21875 -25.171875 C 28.363281 -20.421875 31.398438 -16.65625 35.328125 -13.875 C 39.253906 -11.09375 43.726562 -9.703125 48.75 -9.703125 Z M 48.75 -9.703125 "/></g></g></g><g fill="rgb(100%, 100%, 100%)" fill-opacity="1"><g transform="translate(2400.710378, 1417.903365)"><g><path d="M 44.671875 -71.609375 C 57.015625 -71.609375 66.726562 -68.546875 73.8125 -62.421875 C 80.894531 -56.304688 84.4375 -47.929688 84.4375 -37.296875 C 84.4375 -25.148438 80.570312 -15.628906 72.84375 -8.734375 C 65.125 -1.835938 54.472656 1.609375 40.890625 1.609375 C 27.691406 1.609375 17.617188 -0.503906 10.671875 -4.734375 L 10.671875 -17.5625 C 14.410156 -15.15625 19.054688 -13.269531 24.609375 -11.90625 C 30.171875 -10.539062 35.65625 -9.859375 41.0625 -9.859375 C 50.46875 -9.859375 57.773438 -12.078125 62.984375 -16.515625 C 68.203125 -20.953125 70.8125 -27.367188 70.8125 -35.765625 C 70.8125 -52.128906 60.785156 -60.3125 40.734375 -60.3125 C 35.660156 -60.3125 28.875 -59.535156 20.375 -57.984375 L 13.46875 -62.390625 L 17.890625 -117.234375 L 76.1875 -117.234375 L 76.1875 -104.96875 L 29.265625 -104.96875 L 26.296875 -69.765625 C 32.453125 -70.992188 38.578125 -71.609375 44.671875 -71.609375 Z M 44.671875 -71.609375 "/></g></g></g><g fill="rgb(100%, 100%, 100%)" fill-opacity="1"><g transform="translate(2494.570449, 1417.903365)"><g><path d="M 14.921875 -117.234375 L 58.78125 0 L 45.46875 0 L 1.84375 -117.234375 Z M 14.921875 -117.234375 "/></g></g></g><g fill="rgb(100%, 100%, 100%)" fill-opacity="1"><g transform="translate(2554.846023, 1417.903365)"><g><path d="M 35.28125 -44.984375 L 4.734375 -87.890625 L 19.890625 -87.890625 L 43.0625 -54.203125 L 66.15625 -87.890625 L 81.15625 -87.890625 L 50.59375 -44.984375 L 82.765625 0 L 67.6875 0 L 43.0625 -35.609375 L 18.203125 0 L 3.125 0 Z M 35.28125 -44.984375 "/></g></g></g><g fill="rgb(100%, 100%, 100%)" fill-opacity="1"><g transform="translate(2640.851032, 1417.903365)"><g><path d="M 9.375 -50.125 C 9.375 -73.164062 13.851562 -90.390625 22.8125 -101.796875 C 31.769531 -113.210938 45.015625 -118.921875 62.546875 -118.921875 C 68.585938 -118.921875 73.347656 -118.414062 76.828125 -117.40625 L 76.828125 -105.9375 C 72.710938 -107.269531 68.003906 -107.9375 62.703125 -107.9375 C 50.140625 -107.9375 40.546875 -104.019531 33.921875 -96.1875 C 27.296875 -88.351562 23.660156 -76.046875 23.015625 -59.265625 L 23.984375 -59.265625 C 29.859375 -68.460938 39.160156 -73.0625 51.890625 -73.0625 C 62.421875 -73.0625 70.71875 -69.878906 76.78125 -63.515625 C 82.851562 -57.148438 85.890625 -48.515625 85.890625 -37.609375 C 85.890625 -25.421875 82.5625 -15.835938 75.90625 -8.859375 C 69.25 -1.878906 60.253906 1.609375 48.921875 1.609375 C 36.785156 1.609375 27.160156 -2.945312 20.046875 -12.0625 C 12.929688 -21.175781 9.375 -33.863281 9.375 -50.125 Z M 48.75 -9.703125 C 56.34375 -9.703125 62.238281 -12.09375 66.4375 -16.875 C 70.632812 -21.664062 72.734375 -28.578125 72.734375 -37.609375 C 72.734375 -45.359375 70.78125 -51.453125 66.875 -55.890625 C 62.976562 -60.328125 57.15625 -62.546875 49.40625 -62.546875 C 44.59375 -62.546875 40.179688 -61.554688 36.171875 -59.578125 C 32.160156 -57.597656 28.960938 -54.867188 26.578125 -51.390625 C 24.203125 -47.921875 23.015625 -44.316406 23.015625 -40.578125 C 23.015625 -35.066406 24.082031 -29.929688 26.21875 -25.171875 C 28.363281 -20.421875 31.398438 -16.65625 35.328125 -13.875 C 39.253906 -11.09375 43.726562 -9.703125 48.75 -9.703125 Z M 48.75 -9.703125 "/></g></g></g><g fill="rgb(100%, 100%, 100%)" fill-opacity="1"><g transform="translate(2734.711104, 1417.903365)"><g><path d="M 44.671875 -71.609375 C 57.015625 -71.609375 66.726562 -68.546875 73.8125 -62.421875 C 80.894531 -56.304688 84.4375 -47.929688 84.4375 -37.296875 C 84.4375 -25.148438 80.570312 -15.628906 72.84375 -8.734375 C 65.125 -1.835938 54.472656 1.609375 40.890625 1.609375 C 27.691406 1.609375 17.617188 -0.503906 10.671875 -4.734375 L 10.671875 -17.5625 C 14.410156 -15.15625 19.054688 -13.269531 24.609375 -11.90625 C 30.171875 -10.539062 35.65625 -9.859375 41.0625 -9.859375 C 50.46875 -9.859375 57.773438 -12.078125 62.984375 -16.515625 C 68.203125 -20.953125 70.8125 -27.367188 70.8125 -35.765625 C 70.8125 -52.128906 60.785156 -60.3125 40.734375 -60.3125 C 35.660156 -60.3125 28.875 -59.535156 20.375 -57.984375 L 13.46875 -62.390625 L 17.890625 -117.234375 L 76.1875 -117.234375 L 76.1875 -104.96875 L 29.265625 -104.96875 L 26.296875 -69.765625 C 32.453125 -70.992188 38.578125 -71.609375 44.671875 -71.609375 Z M 44.671875 -71.609375 "/></g></g></g></svg>